<?xml version="1.0" encoding="utf-8"?>
<svg version="1.1" id="Layer_1" xmlns="http://www.w3.org/2000/svg" xmlns:xlink="http://www.w3.org/1999/xlink" x="0px" y="0px" 
	 viewBox="0 0 680 680" style="enable-background:new 0 0 680 680;" xml:space="preserve">

	<style type="text/css">
		:root {
			--speed:300ms;
			--delay: 1000ms;
		}

		.st0{
			fill:#E43D50;
		}

		.st1{
			fill:#FFFFFF;
		}

		.locker {
			animation: close-lock;
			animation-fill-mode: forwards;
			animation-duration: var(--speed);
			animation-delay: var(--delay);
			animation-timing-function: cubic-bezier(0.6, -0.28, 0.735, 0.045);
			transform: translateY(-7%);
		}

		@keyframes close-lock {
			0% {
				transform: translateY(-7%);
			}
			100% {
				transform: translateY(0);
			}
		}

		.lock {
			animation: shake-lock;
			animation-fill-mode: forwards;
			animation-duration: var(--speed);
    		animation-delay: calc(var(--delay) + var(--speed) / 1.2);
    		animation-timing-function: ease;
			transform: translateY(0);
		}

		@keyframes shake-lock {
			0% {
				transform: translateY(0);
			}
			50% {
				transform: translateY(2%);
			}
			100% {
				transform: translateY(0);
			}
		}
	</style>

	<circle class="st0" cx="340" cy="340" r="335"/>

	<polygon class="st0" points="171,614 25,655 64,499 "/>

	<g class="lock">
		<path class="st1" d="M237.6,305.4h-2.4c-15,0-27.3,12.2-27.3,27.1v149.3c0,15,12.2,27.1,27.3,27.1h209.7c15,0,27.3-12.2,27.3-27.1
			  V332.5c0-15-12.2-27.1-27.3-27.1h-0.7L237.6,305.4z M356.2,413.8c-2.1,1.5-2.7,3-2.7,5.5c0.1,11,0.1,21.9,0.1,32.8l0,0
			  c0.2,4.5-2.1,9-6.2,11c-9.6,4.9-19.3-2-19.3-11V452c0-11,0-21.9,0.1-32.9c0-2.2-0.5-3.7-2.5-5.2c-10-7.3-13.3-19.8-8.3-30.8
			  c4.9-10.7,16.7-17,27.9-14.7c12.4,2.5,21.1,12.4,21.2,24.8C366.6,401.8,363.1,408.8,356.2,413.8z"/>
		
		<path class="st1 locker" d="M282,414.4V274.2c0-32,26.1-58,58-58c32,0,58,26.1,58,58c0,0-0.1,35.3-0.1,35.9c0,4.9,2.8,7,6.8,7
			  c0.4,0,31.1,0,31.6,0c4.3-0.1,6.9-1.7,6.9-7c0-0.4,0-36,0-36c0-56.9-46.3-103.2-103.2-103.2c-56.9,0.1-103.2,46.4-103.2,103.2
			  v140.2H282z"/>
	</g>
</svg>