<?xml version="1.0" encoding="utf-8"?>
<svg version="1.1" xmlns="http://www.w3.org/2000/svg" xmlns:xlink="http://www.w3.org/1999/xlink" x="0px" y="0px" viewBox="0 0 680 680" xml:space="preserve">
	<style type="text/css">
		.st0{fill:#E43D50;}
		.st1{fill:#FFFFFF;}
	</style>
	<g>	
		<circle class="st0" cx="340" cy="340" r="335"/>
		<polygon class="st0" points="171,614 25,655 64,499 "/>
		<path class="st1" d="M238.7,271.8v35.4h-2.4c-14.8,0-26.9,12.1-26.9,26.9v148c0,14.8,12.1,26.9,26.9,26.9h206.6
			  c14.8,0,26.9-12.1,26.9-26.9V334c0-14.8-12.1-26.9-26.9-26.9h-0.7v-35.4c0-56.1-45.6-101.8-101.8-101.8
			  C284.3,170.1,238.7,215.7,238.7,271.8z M355.5,414.7c-2.1,1.5-2.6,3-2.6,5.4c0.1,10.9,0.1,21.7,0.1,32.6l0,0
			  c0.2,4.5-2.1,8.9-6.1,10.9c-9.5,4.8-19-1.9-19-10.9v-0.1c0-10.9,0-21.8,0.1-32.6c0-2.2-0.5-3.7-2.4-5.1
			  c-9.8-7.3-13.1-19.7-8.2-30.5c4.8-10.6,16.5-16.8,27.5-14.6c12.3,2.5,20.8,12.3,20.9,24.6C365.8,402.7,362.4,409.7,355.5,414.7z
		  	  M283.2,271.8c0-31.6,25.7-57.2,57.2-57.2c31.6,0,57.2,25.7,57.2,57.2v35.4H283.2V271.8z"/>
	</g>
</svg>
